<?xml version="1.0" standalone="no"?>
<!DOCTYPE svg PUBLIC "-//W3C//DTD SVG 20010904//EN"
 "http://www.w3.org/TR/2001/REC-SVG-20010904/DTD/svg10.dtd">
<svg version="1.0" xmlns="http://www.w3.org/2000/svg"
 width="114.000000pt" height="94.000000pt" viewBox="0 0 114.000000 94.000000"
 preserveAspectRatio="xMidYMid meet">

<g transform="translate(0.000000,94.000000) scale(0.100000,-0.100000)"
fill="#000000" stroke="none">
<path d="M0 470 l0 -470 570 0 570 0 0 470 0 470 -570 0 -570 0 0 -470z m466
134 c-4 -19 -10 -42 -13 -50 -3 -8 1 -14 10 -14 11 0 18 13 22 38 10 59 13 62
46 62 24 0 30 -4 25 -15 -3 -8 -12 -54 -21 -102 -25 -140 -22 -133 -54 -133
-28 0 -28 1 -20 43 12 59 11 67 -5 61 -8 -3 -17 -26 -21 -54 -6 -42 -10 -49
-33 -53 -15 -3 -29 -4 -31 -2 -2 3 4 48 13 102 29 166 24 153 58 153 29 0 30
-1 24 -36z m160 -26 l-6 -63 17 63 c15 57 18 62 43 62 l28 0 -30 -117 c-16
-65 -32 -121 -36 -124 -4 -4 -27 -10 -51 -14 l-43 -7 6 38 c3 22 8 81 12 132
l6 92 30 0 29 0 -5 -62z m227 41 c14 -22 1 -66 -28 -95 l-24 -24 20 -47 c16
-37 17 -48 7 -55 -31 -19 -46 -8 -59 45 l-13 52 -9 -48 c-7 -38 -15 -50 -35
-58 -13 -5 -26 -8 -28 -7 -1 2 7 58 19 125 16 87 26 124 37 127 34 10 103 1
113 -15z"/>
<path d="M770 565 c0 -30 11 -32 33 -7 19 21 13 32 -15 32 -13 0 -18 -7 -18
-25z"/>
</g>
</svg>
